# AST/ASF file generated using VICON BodyLanguage
# -----------------------------------------------
:version 1.10
:name VICON
:units
  mass 1.0
  length 0.45
  angle deg
:documentation
   .ast/.asf automatically generated from VICON data using
   VICON BodyBuilder and BodyLanguage model FoxedUp or BRILLIANT.MOD
:root
   order TX TY TZ RX RY RZ
   axis XYZ
   position 0 0 0  
   orientation 0 0 0 
:bonedata
  begin
     id 1 
     name lhipjoint
     direction 0.57768 -0.667037 0.470475 
     length 2.36008 
     axis 0 0 0  XYZ
  end
  begin
     id 2 
     name lfemur
     direction 0.34202 -0.939693 0  
     length 6.97235  
     axis 0 0 20  XYZ
    dof rx ry rz
    limits (-160.0 20.0)
           (-70.0 70.0)
           (-60.0 70.0)
  end
  begin
     id 3 
     name ltibia
     direction 0.34202 -0.939693 0   
     length 6.93428   
     axis 0 0 20   XYZ
    dof rx
    limits (-10.0 170.0)
  end
  begin
     id 4 
     name lfoot
     direction 0.133018 -0.365463 0.921272   
     length 2.18603   
     axis -90 7.62852e-016 20   XYZ
    dof rx rz
    limits (-45.0 90.0)
           (-70.0 20.0)
  end
  begin
     id 5 
     name ltoes
     direction 1.53519e-011 -4.22055e-011 1   
     length 1.07924   
     axis -90 7.62852e-016 20   XYZ
    dof rx
    limits (-90.0 20.0)
  end
  begin
     id 6 
     name rhipjoint
     direction -0.577712 -0.667019 0.470462   
     length 2.36015  
     axis 0 0 0  XYZ 
  end
  begin
     id 7 
     name rfemur
     direction -0.34202 -0.939693 0   
     length 6.71195   
     axis 0 0 -20   XYZ
    dof rx ry rz
    limits (-160.0 20.0)
           (-70.0 70.0)
           (-70.0 60.0)
  end
  begin
     id 8 
     name rtibia
     direction -0.34202 -0.939693 0   
     length 7.04592   
     axis 0 0 -20   XYZ
    dof rx
    limits (-10.0 170.0)
 end
 begin
     id 9 
     name rfoot
     direction -0.113796 -0.312651 0.943027   
     length 2.03846  
     axis -90 -7.62852e-016 -20   XYZ
    dof rx rz
    limits (-45.0 90.0)
           (-20.0 70.0)
  end
  begin
     id 10 
     name rtoes
     direction -1.53586e-011 -4.218e-011 1   
     length 1.01562   
     axis -90 -7.62852e-016 -20   XYZ
    dof rx
    limits (-90.0 20.0)
  end
  begin
     id 11 
     name lowerback
     direction -0.0417299 0.991937 -0.119667   
     length 2.05257   
     axis 0 0 0   XYZ
    dof rx ry rz
    limits (-20.0 45.0)
           (-30.0 30.0)
           (-30.0 30.0)
  end
  begin
     id 12 
     name upperback
     direction -0.00017666 0.999999 0.00105178   
     length 2.05693   
     axis 0 0 0   XYZ
    dof rx ry rz
    limits (-20.0 45.0)
           (-30.0 30.0)
           (-30.0 30.0)
  end
  begin
     id 13 
     name thorax
     direction 0.0185169 0.998203 0.0569866   
     length 2.0932   
     axis 0 0 0   XYZ
    dof rx ry rz
    limits (-20.0 45.0)
           (-30.0 30.0)
           (-30.0 30.0)
  end
  begin
     id 14 
     name lowerneck
     direction -0.0212406 0.982645 0.184277   
     length 1.72509   
     axis 0 0 0   XYZ
    dof rx ry rz
    limits (-20.0 45.0)
           (-30.0 30.0)
           (-30.0 30.0)
  end
  begin
     id 15 
     name upperneck
     direction 0.00528579 0.965323 -0.261004   
     length 1.76294   
     axis 0 0 0   XYZ
    dof rx ry rz
    limits (-20.0 45.0)
           (-30.0 30.0)
           (-30.0 30.0)
  end
  begin
     id 16
     name head
     direction 0.00695421 0.994078 -0.108445  
     length 1.78678  
     axis 0 0 0   XYZ
    dof rx ry rz
    limits (-20.0 45.0)
           (-30.0 30.0)
           (-30.0 30.0)
  end
  begin
     id 17 
     name lclavicle
     direction 0.97277 0.211305 -0.095232  
     length 3.84823  
     axis 0 0 0   XYZ
    dof ry rz
    limits (-20.0 10.0)
           (0.0 20.0)
  end
  begin
     id 18 
     name lhumerus
     direction 1 -4.48957e-011 -1.98313e-027   
     length 4.97185   
     axis 180 -30 -90   XYZ
    dof rx ry rz
    limits (-60.0 90.0)
           (-90.0 90.0)
           (-90.0 90.0)
  end
  begin
     id 19
     name lradius
     direction 1 -4.4898e-011 7.31063e-027   
     length 3.35811   
     axis 180 -30 -90   XYZ
    dof rx
    limits (-10.0 170.0)
  end
  begin
     id 20
     name lwrist
     direction 1 -4.48938e-011 9.95048e-027   
     length 1.67905   
     axis -8.75986e-015 90 90   XYZ
    dof ry
    limits (-180.0 0.0)
 end
  begin
     id 21 
     name lhand
     direction 1 -4.4901e-011 1.9901e-026   
     length 0.622776   
     axis -1.26985e-014 90 90   XYZ
    dof rx rz
    limits (-90.0 90.0)
           (-45.0 45.0)
  end
  begin
     id 22 
     name lfingers
     direction 1 -4.48961e-011 3.98019e-026   
     length 0.502098   
     axis -2.5397e-014 90 90   XYZ
    dof rx
    limits (0.0 90.0)
  end
  begin
     id 23
     name lthumb
     direction 0.707107 -6.34933e-011 0.707107   
     length 0.720915   
     axis -90 45 2.85299e-015   XYZ
    dof rx rz
    limits (-45.0 45.0)
           (-45.0 45.0)
  end
  begin
     id 24 
     name rclavicle
     direction -0.990867 0.133739 -0.0172226   
     length 3.78845  
     axis 0 0 0   XYZ 
    dof ry rz
    limits (-10.0 20.0)
           (-20.0 0.0)
  end
  begin
     id 25 
     name rhumerus
     direction -1 -4.48972e-011 -1.99267e-027  
     length 4.96493   
     axis 180 30 90   XYZ
    dof rx ry rz
    limits (-90.0 60.0)
           (-90.0 90.0)
           (-90.0 90.0)
  end
  begin
     id 26 
     name rradius
     direction -1 -4.48969e-011 8.96093e-027   
     length 3.34929   
     axis 180 30 90   XYZ
    dof rx
    limits (-10.0 170.0)
  end
  begin
     id 27 
     name rwrist
     direction -1 -4.48953e-011 9.95048e-027   
     length 1.67464   
     axis -8.75986e-015 -90 -90   XYZ
    dof ry
    limits (-180.0 0.0)
  end
  begin
     id 28
     name rhand
     direction -1 -4.49001e-011 1.9901e-026   
     length 0.638041   
     axis -1.26985e-014 -90 -90   XYZ
    dof rx rz
    limits (-90.0 90.0)
           (-45.0 45.0)
  end
  begin
     id 29
     name rfingers
     direction -1 -4.48967e-011 3.98019e-026   
     length 0.514405   
     axis -2.5397e-014 -90 -90   XYZ
    dof rx
    limits (0.0 90.0)
  end
  begin
     id 30
     name rthumb
     direction -0.707107 -6.34904e-011 0.707107   
     length 0.738586   
     axis -90 -45 -2.85299e-015   XYZ
    dof rx rz
    limits (-45.0 45.0)
           (-45.0 45.0)
  end
:hierarchy
  begin
    root lhipjoint rhipjoint lowerback
    lhipjoint lfemur
    lfemur ltibia
    ltibia lfoot
    lfoot ltoes
    rhipjoint rfemur
    rfemur rtibia
    rtibia rfoot
    rfoot rtoes
    lowerback upperback
    upperback thorax
    thorax lowerneck lclavicle rclavicle
    lowerneck upperneck
    upperneck head
    lclavicle lhumerus
    lhumerus lradius
    lradius lwrist
    lwrist lhand lthumb
    lhand lfingers
    rclavicle rhumerus
    rhumerus rradius
    rradius rwrist
    rwrist rhand rthumb
    rhand rfingers
  end

#!OML:ASF E:\Mandelcareful walks\Project 1\Capture day 1\Session 1\Subject1.ASF
:FULLY-SPECIFIED
:DEGREES
99
root -29.5535 15.5259 -1.27569 111.015 84.8878 450.291
lowerback 17.2292 -0.165382 0.205495
upperback 5.58729 0.0518722 -1.66421
thorax -3.6801 0.168249 -1.89256
lowerneck -23.9379 7.97645 2.66403
upperneck 20.2784 16.2111 -19.2885
head 12.8871 5.35059 -4.6467
rclavicle 2.52457e-014 1.94809e-014
rhumerus -19.9217 8.71885 -83.7361
rradius 36.3221
rwrist -17.4669
rhand -13.4521 -30.173
rfingers 7.12502
rthumb 12.6574 -59.7695
lclavicle 2.52457e-014 1.94809e-014
lhumerus -23.1908 -39.8913 91.5395
lradius 62.4393
lwrist 14.5589
lhand -18.2624 -8.12198
lfingers 7.12502
lthumb 8.01709 21.706
rfemur -47.8791 -15.3869 16.5537
rtibia 54.6157
rfoot -26.2842 -6.18738
rtoes 2.84413
lfemur -53.1327 21.3971 -19.9609
ltibia 53.6807
lfoot -9.35428 6.29946
ltoes -23.2449
100
root -29.5563 15.4993 -1.26538 120.731 84.2821 458.949
lowerback 16.4728 -0.398949 0.323919
upperback 5.4882 -0.248986 -1.79434
thorax -3.39595 0.0174745 -2.0334
lowerneck -24.5107 8.22186 2.61978
upperneck 20.5747 16.772 -19.5089
head 13.2312 5.51483 -4.60267
rclavicle 1.43125e-014 1.74931e-014
rhumerus -19.4852 8.0925 -83.4684
rradius 35.9186
rwrist -17.2718
rhand -14.3124 -29.4624
rfingers 7.12502
rthumb 11.8279 -59.1084
lclavicle 1.43125e-014 1.74931e-014
lhumerus -22.7482 -40.5692 91.1617
lradius 62.8023
lwrist 14.5715
lhand -18.1929 -8.53926
lfingers 7.12502
lthumb 8.08417 21.2861
rfemur -49.31 -16.1851 16.5101
rtibia 55.1595
rfoot -26.2822 -6.35778
rtoes 3.03483
lfemur -54.4385 20.2127 -19.8772
ltibia 52.2649
lfoot -9.37718 6.82834
ltoes -23.0771
101
root -29.5289 15.4837 -1.26832 123.249 83.7626 461.015
lowerback 16.2196 -0.322778 0.277126
upperback 5.31066 -0.179942 -2.05522
thorax -3.44687 0.0472255 -2.29453
lowerneck -24.0538 8.40453 3.25473
upperneck 20.6885 17 -19.9768
head 13.3412 5.64114 -4.85697
rclavicle -3.57812e-015 1.31198e-014
rhumerus -19.9831 7.2507 -83.2857
rradius 35.9924
rwrist -16.9628
rhand -13.7977 -31.342
rfingers 7.12502
rthumb 12.3242 -60.9588
lclavicle -3.57812e-015 1.31198e-014
lhumerus -22.9796 -41.7729 91.2347
lradius 63.2149
lwrist 14.9781
lhand -17.918 -8.21636
lfingers 7.12502
lthumb 8.34943 21.5986
rfemur -49.8711 -16.6584 16.1451
rtibia 55.5114
rfoot -26.3738 -6.19107
rtoes 3.47184
lfemur -54.6085 19.4474 -19.5304
ltibia 50.3507
lfoot -9.65108 7.6991
ltoes -23.0798
102
root -29.4843 15.4837 -1.2777 124.631 83.4797 462.361
lowerback 16.2588 -0.335109 0.227605
upperback 5.37627 -0.199483 -2.13552
thorax -3.39912 0.0416806 -2.3476
lowerneck -23.9625 8.56142 2.92333
upperneck 20.6974 17.3154 -19.8409
head 13.3233 5.77521 -4.67855
rclavicle 1.39149e-014 4.81059e-014
rhumerus -20.1159 7.21007 -83.0078
rradius 35.8983
rwrist -17.0252
rhand -13.342 -32.8345
rfingers 7.12502
rthumb 12.7635 -62.4244
lclavicle 1.39149e-014 4.81059e-014
lhumerus -22.9788 -42.4333 91.1934
lradius 63.7695
lwrist 15.4864
lhand -17.1385 -7.51752
lfingers 7.12502
lthumb 9.10171 22.2661
rfemur -49.7986 -16.9993 15.8574
rtibia 55.8006
rfoot -26.6598 -6.08242
rtoes 3.30579
lfemur -54.193 18.7837 -18.6944
ltibia 48.1159
lfoot -9.87482 8.93157
ltoes -24.1766
103
root -29.4379 15.4917 -1.28967 126.818 83.2964 464.567
lowerback 16.4658 -0.358939 0.169631
upperback 5.13714 -0.256995 -2.13608
thorax -3.76439 0.0050344 -2.30703
lowerneck -22.9377 8.71146 3.09564
upperneck 20.683 17.5385 -20.0528
head 13.1868 5.93999 -4.7642
rclavicle 1.07344e-014 3.37934e-014
rhumerus -20.7178 7.32549 -82.8236
rradius 35.5502
rwrist -17.0296
rhand -13.2443 -32.521
rfingers 7.12502
rthumb 12.8577 -62.105
lclavicle 1.07344e-014 3.37934e-014
lhumerus -24.0462 -42.6463 91.8332
lradius 64.4096
lwrist 15.8593
lhand -16.4668 -7.16321
lfingers 7.12502
lthumb 9.74982 22.5911
rfemur -49.4822 -17.3748 15.7557
rtibia 55.9683
rfoot -26.9721 -6.07598
rtoes 2.72086
lfemur -53.891 18.0708 -17.6159
ltibia 45.6201
lfoot -9.62183 10.6532
ltoes -23.1016
104
root -29.3884 15.4314 -1.31775 129.092 83.095 466.812
lowerback 16.6842 -0.396847 0.370069
upperback 5.1104 -0.283128 -2.37018
thorax -3.91184 -0.00573294 -2.6659
lowerneck -23.1895 8.83642 3.21798
upperneck 21.0414 17.757 -19.9684
head 13.4168 6.01031 -4.7115
rclavicle 1.07344e-014 2.06736e-014
rhumerus -20.883 7.0584 -82.8296
rradius 35.2523
rwrist -16.9102
rhand -13.0004 -32.161
rfingers 7.12502
rthumb 13.0928 -61.73
lclavicle 1.07344e-014 2.06736e-014
lhumerus -24.2564 -43.3782 91.6529
lradius 64.7901
lwrist 16.1061
lhand -16.4745 -7.34633
lfingers 7.12502
lthumb 9.74234 22.4083
rfemur -49.2997 -17.8975 15.6629
rtibia 56.4008
rfoot -27.4028 -5.97531
rtoes 2.07331
lfemur -53.3309 17.5617 -16.8156
ltibia 43.1916
lfoot -9.83562 11.8764
ltoes -20.0067
105
root -29.3424 15.4135 -1.34934 132.845 82.7581 470.405
lowerback 16.4752 -0.466024 0.480462
upperback 5.25488 -0.346406 -2.46791
thorax -3.65193 -0.0290747 -2.8177
lowerneck -23.5504 8.91083 3.30998
upperneck 21.2099 17.9142 -20.03
head 13.6039 6.04333 -4.71377
rclavicle -2.78299e-015 3.57812e-015
rhumerus -20.8544 6.90321 -82.6138
rradius 35.1467
rwrist -16.9397
rhand -12.8162 -32.3454
rfingers 7.12502
rthumb 13.2704 -61.9029
lclavicle -2.78299e-015 3.57812e-015
lhumerus -24.0795 -44.2919 91.313
lradius 65.2575
lwrist 16.004
lhand -16.6615 -7.80766
lfingers 7.12502
lthumb 9.56195 21.9554
rfemur -49.5442 -18.4568 15.4659
rtibia 56.7022
rfoot -27.4072 -6.13409
rtoes 1.50985
lfemur -52.9793 16.6555 -15.9466
ltibia 40.7613
lfoot -10.1128 13.2707
ltoes -17.9576
106
root -29.2982 15.3648 -1.39075 137.026 82.296 474.243
lowerback 16.118 -0.597067 0.497423
upperback 5.24341 -0.516112 -2.48116
thorax -3.48324 -0.112408 -2.80691
lowerneck -23.5899 8.9846 3.27103
upperneck 21.3241 18.1236 -20.136
head 13.7056 6.1123 -4.70516
rclavicle 1.47101e-014 9.93923e-015
rhumerus -20.976 6.90565 -82.3622
rradius 35.0403
rwrist -16.9875
rhand -12.5851 -32.1185
rfingers 7.12502
rthumb 13.4931 -61.6614
lclavicle 1.47101e-014 9.93923e-015
lhumerus -24.4337 -44.7201 91.3138
lradius 66.0125
lwrist 15.3538
lhand -16.3758 -8.24789
lfingers 7.12502
lthumb 9.83756 21.5023
rfemur -49.6458 -19.2004 15.2997
rtibia 57.1483
rfoot -27.8785 -5.73623
rtoes 2.60407
lfemur -53.1482 15.6679 -15.1887
ltibia 38.6184
lfoot -10.3978 14.7109
ltoes -16.6609
107
root -29.1532 15.3997 -1.4651 127.415 83.6243 466.576
lowerback 17.4905 -0.0860095 0.796834
upperback 5.87511 0.255495 -2.56616
thorax -3.49646 0.298062 -3.2285
lowerneck -23.5354 9.05296 3.32731
upperneck 21.3803 18.3411 -20.4127
head 13.8026 6.18637 -4.77852
rclavicle 1.63003e-014 4.41302e-014
rhumerus -21.0883 7.08605 -82.2004
rradius 34.8125
rwrist -16.9968
rhand -12.4296 -31.5441
rfingers 7.12502
rthumb 13.6429 -61.077
lclavicle 1.63003e-014 4.41302e-014
lhumerus -24.9585 -44.8848 91.3779
lradius 66.6149
lwrist 14.0926
lhand -15.8219 -8.67629
lfingers 7.12502
lthumb 10.372 21.0479
rfemur -47.164 -18.0568 14.8638
rtibia 57.1537
rfoot -27.9321 -5.72626
rtoes 0.533022
lfemur -49.5124 16.359 -13.0308
ltibia 36.6483
lfoot -11.7686 15.9089
ltoes -15.3717
108
root -29.0917 15.3791 -1.51815 129.694 83.8132 469.115
lowerback 17.8813 -0.0676057 0.990059
upperback 5.96601 0.324127 -2.57706
thorax -3.59973 0.337704 -3.37037
lowerneck -23.6118 9.07946 3.34681
upperneck 21.2992 18.4622 -20.6709
head 13.8484 6.21741 -4.85106
rclavicle 1.43125e-014 -8.34896e-015
rhumerus -21.2007 7.55356 -82.1866
rradius 34.596
rwrist -17.0335
rhand -12.9456 -31.4582
rfingers 7.12502
rthumb 13.1456 -61.0238
lclavicle 1.43125e-014 -8.34896e-015
lhumerus -25.1612 -45.3562 91.1184
lradius 67.0045
lwrist 12.7033
lhand -14.9969 -9.27733
lfingers 7.12502
lthumb 11.1677 20.4055
rfemur -46.8489 -18.1098 14.8112
rtibia 57.4281
rfoot -28.0176 -6.13004
rtoes -0.656826
lfemur -48.974 15.9811 -11.9278
ltibia 35.1294
lfoot -12.0234 16.7263
ltoes -15.085
109
root -29.0462 15.3324 -1.57889 135.726 83.7419 474.944
lowerback 17.8974 -0.132765 1.28378
upperback 5.98254 0.292358 -2.5765
thorax -3.59099 0.324808 -3.53126
lowerneck -23.8815 9.0439 3.19443
upperneck 21.2043 18.4762 -20.7297
head 13.8627 6.19528 -4.83409
rclavicle 1.78906e-015 -1.19271e-015
rhumerus -21.4349 7.89875 -82.179
rradius 34.5349
rwrist -17.0659
rhand -13.684 -31.4309
rfingers 7.12502
rthumb 12.4338 -61.0411
lclavicle 1.78906e-015 -1.19271e-015
lhumerus -25.0485 -46.0784 90.5771
lradius 67.4502
lwrist 11.2671
lhand -13.8064 -9.62334
lfingers 7.12502
lthumb 12.3158 19.994
rfemur -46.9848 -18.504 14.8911
rtibia 57.7307
rfoot -28.1852 -6.41455
rtoes -1.15143
lfemur -49.3139 15.4861 -11.194
ltibia 33.8679
lfoot -11.9595 17.431
ltoes -14.6744
110
root -28.983 15.2907 -1.65851 138.018 83.7863 477.207
lowerback 18.0104 -0.110453 1.51461
upperback 5.97634 0.357558 -2.71527
thorax -3.64915 0.359336 -3.82734
lowerneck -23.8699 9.05823 3.2176
upperneck 21.0982 18.4903 -20.8034
head 13.8321 6.20525 -4.85923
rclavicle -5.96354e-016 -4.37326e-015
rhumerus -21.7607 7.78454 -82.2116
rradius 34.4517
rwrist -16.825
rhand -13.2665 -31.1038
rfingers 7.12502
rthumb 12.8363 -60.6891
lclavicle -5.96354e-016 -4.37326e-015
lhumerus -25.4554 -46.598 90.194
lradius 68.0992
lwrist 9.57297
lhand -12.9215 -9.69594
lfingers 7.12502
lthumb 13.1689 19.8682
rfemur -46.9199 -18.6951 14.7193
rtibia 58.1803
rfoot -28.3882 -6.63584
rtoes -2.52922
lfemur -49.4061 15.3677 -10.7182
ltibia 33.0511
lfoot -11.9011 17.9816
ltoes -14.2116
111
root -28.9336 15.2493 -1.7455 140.405 83.4561 479.51
lowerback 18.1996 -0.15584 1.48895
upperback 6.02548 0.298836 -2.86948
thorax -3.69933 0.336187 -3.96889
lowerneck -24.1421 9.03304 3.12765
upperneck 21.1104 18.5132 -20.8274
head 13.8936 6.18641 -4.84206
rclavicle -3.97569e-016 -2.62396e-014
rhumerus -21.8321 7.54401 -82.1642
rradius 34.3517
rwrist -16.7212
rhand -12.7414 -30.6374
rfingers 7.12502
rthumb 13.3424 -60.1902
lclavicle -3.97569e-016 -2.62396e-014
lhumerus -25.6398 -47.0862 89.6385
lradius 68.8022
lwrist 7.86614
lhand -12.3739 -10.0537
lfingers 7.12502
lthumb 13.6966 19.4756
rfemur -46.9273 -19.2497 14.2574
rtibia 58.6659
rfoot -28.5876 -6.85678
rtoes -4.43668
lfemur -49.7927 14.9286 -10.64
ltibia 32.6221
lfoot -11.6596 18.3865
ltoes -13.8093
112
root -28.8559 15.2138 -1.85516 138.211 83.6744 477.531
lowerback 18.5129 -0.0283513 1.45073
upperback 6.21567 0.472565 -3.09923
thorax -3.64384 0.435987 -4.23428
lowerneck -24.6037 8.99365 2.98157
upperneck 21.1687 18.5106 -20.7487
head 13.9876 6.14338 -4.77835
rclavicle 1.64991e-014 -8.05078e-014
rhumerus -22.0123 7.82723 -82.294
rradius 34.5036
rwrist -17.1793
rhand -12.849 -30.2722
rfingers 7.12502
rthumb 13.2388 -59.8318
lclavicle 1.64991e-014 -8.05078e-014
lhumerus -25.6408 -47.3016 88.7924
lradius 69.4864
lwrist 6.06095
lhand -11.477 -10.5133
lfingers 7.12502
lthumb 14.561 18.9556
rfemur -46.4791 -19.3334 13.6915
rtibia 59.0279
rfoot -28.9098 -6.63126
rtoes -5.68359
lfemur -49.5838 15.091 -10.5
ltibia 32.6082
lfoot -11.8459 18.4939
ltoes -12.1488
